<?xml version="1.0" encoding="UTF-8"?>
<svg xmlns="http://www.w3.org/2000/svg" width="64" height="64" viewBox="0 0 64 64" aria-label="SafeCraker symbolic icon">
  <!-- Monochrome symbolic icon (panel-friendly) -->
  <!-- Shield -->
  <path fill="#000000" d="M32 3c8 6 16 6 24 8v21c0 16-10.5 25.5-24 29C18.5 57.5 8 48 8 32V11c8-2 16-2 24-8z"/>
  <path fill="#ffffff" d="M32 8c6.6 4.6 13.2 4.9 19 6.2V32c0 12.3-7.6 19.8-19 23.1C20.6 51.8 13 44.3 13 32V14.2C18.8 12.9 25.4 12.6 32 8z"/>
  <!-- Dial -->
  <circle cx="32" cy="30" r="13" fill="#000000"/>
  <circle cx="32" cy="30" r="9" fill="#ffffff"/>
  <circle cx="32" cy="30" r="5" fill="#000000"/>
  <!-- Tick marks -->
  <path fill="#000000" d="M31 16h2v4h-2zM31 40h2v4h-2zM18 29h4v2h-4zM42 29h4v2h-4z"/>
</svg>
